<?xml version="1.0" encoding="UTF-8"?>
<svg width="106.63mm" height="107.42mm" version="1.1" viewBox="0 0 106.63 107.42" xml:space="preserve" xmlns="http://www.w3.org/2000/svg"><g transform="translate(-.94851 -.60499)"><g transform="translate(-.509 -3.8578)"><g><path d="m40.905 11.239-0.32731-0.39439-0.06096-0.75775 0.32691-0.74458 0.62744-0.37213 0.72287-0.14944 0.73105 0.47655 0.42737 0.73105-0.10017 0.72287-0.40385 0.72287-0.79678 0.3271-0.81928-0.16778z"/><path d="m98.372 33.695-1.3786-0.90358-0.07658-2.2949-0.07658-2.2949-12.965-8.1552-1.0583 0.22295-5.0605 1.193-10.815-6.6218-8.4318-5.2458-0.1569-0.50161 2.7635-1.8085 3.7085 2.0146 10.054 6.0951 3.0427 2.0529 9.06e-4 1.1062 1.9566-0.48693 1.6694-0.41933 12.38 7.7858 1.9182 1.195 1.8564 1.1669 0.07448 2.579 2.363 1.1679 6e-3 1.2494v1.8343l-0.37195-0.004305z"/><path d="m9.9242 33.193v-1.7476l7.4036-4.2444 1.5769 0.81544 0.07384-3.4997 0.07385-3.4997 7.1363-4.4407 4.9092 2.4386 0.45906 0.22269 0.30862-1.4295 3.8555-2.1969 4.6528-2.9246 1.3348 0.50749h0.74089l1.0864-0.62233 0.78414-1.02v-1.0392l0.93033 0.29528 4.3457-2.6123 2.3969 1.3396v0.36536l-20.552 12.289-0.36663 0.22214 0.02702-0.22214 0.15173-1.1245 0.15173-1.1245-2.5318-1.1552-2.6387-1.2789-0.77039 0.46035-5.7426 3.5612-0.0072 7.715-6.7469 3.9948-3.0427 1.7022z"/><path d="m74.879 36.228-8.7312-5.3964-9.7896-6.0742-2.1356 0.02562 0.0484-0.91794 2.2281 0.04412 6.8706 4.198 6.7469 4.198 5.2342 3.2452z"/><path d="m40.087 43.813v-1.7107l15.144-9.3119 13.563 8.2635 1.4552 1.0159v3.139h-0.51801l-14.231-8.7312h-0.55835l-12.342 7.5895-2.5135 1.4566z"/><path d="m26.858 51.981v-1.7132l8.4139-5.0588h0.58193v3.1293l-3.9026 2.3642-5.0932 2.9917z"/><path d="m87.712 51.431v-10.683l-3.8365-2.3643-15.875-9.6763-11.377-6.9352-1.3229-0.86258-7.2662 4.3392-0.64559 0.64559-1.6274 4.3631-5.2552 3.0773-6.0548 3.5691-0.0245-0.97741 5.0128-2.9273 5.5775-3.283 1.0077-2.528 0.80888-2.1564 8.2021-4.9462 0.4223-0.0128 10.161 6.1957 20.479 12.457 2.4075 1.4422v11.285z"/><path d="m102 50.236v-7.1438h0.32598l2.5684 1.8854 0.1484 6.3659 0.7276-0.57296 0.72761-0.57296v-18.796l0.79375-0.0078v19.291l-4.101 3.1347-0.0782 1.7803-0.0782 1.7803h-1.0342z"/><path d="m29.021 55.626 2.8639-1.7289v3.7473h-2.8792z"/><path d="m56.589 57.218c-0.0033-1.0255-0.0025-0.73961 0.03436-1.8226h3.4396v3.4396l-1.6571 0.07886-1.7843-6.71e-4z"/><path d="m50.67 57.115v-1.8521h3.4396v3.7042h-3.4396z"/><path d="m56.491 62.803v-1.7198h3.7042v3.4396h-3.7042z"/><path d="m50.67 62.803v-1.7198h3.4396v3.4396h-3.4396z"/><path d="m21.566 74.109v-3.9078l2.6973-2.1062 0.0132-2.7825 0.72904-0.0028v3.1507l-2.6458 2.231v7.3255h-0.79375z"/><path d="m29.152 79.429-0.17768-0.17768v-18.697h2.9104v15.875h46.567v-25.85l-5.118-3.1217-0.10688-1.6536-0.10688-1.6536h0.55173l10.072 6.1573v3.3677h-0.51638l-1.7326-1.0538-0.13229 13.425-0.13229 13.425-51.9 0.13487z"/><path d="m102 71.006v-10.186h1.0583v2.8461l2.9104 2.4864v11.823l-1.7823 1.6086-1.7823 1.6086h-0.40422z"/><path d="m2.7804 89.167v-19.611l4.7625-3.5673v-10.384l-3.175-2.9809v-6.3312l0.82894-0.4639 0.97866-1.4919-1.1461-2.3681 3.175-2.8898 0.32124 18.168 0.037817 10.782 0.037817 10.782h-0.31248l-2.8487-2.4337-0.14614-7.6061-1.7198 1.3469v19.036z"/><path d="m35.986 92.609-14.552-8.6583-5.4145-3.1557-0.0047-6.665-0.0047-6.665 2.6458-2.231v-7.7423l-2.6458-2.606v-14.583l12.597-7.5241 26.694-16.179 1.0583 0.66926 24.342 14.792 10.98 6.6066v15.488l-2.7534 2.4756-0.01236 4.6737-0.01235 4.6737 2.7781 2.586v9.7237l-1.4287 0.91391-2.0126 1.2326-0.0389-3.8999-0.0389-2.2916 0.85086-0.0555 0.04225 4.6426 0.97237-0.5463 0.8599-0.52381v-8.6248l-1.4553-1.4371-1.4552-1.4371v-9.8276l2.6458-2.606-0.0182-14.837-7.5224-4.4792-21.696-13.195-5.8953-3.6252h-0.35399l-9.6257 5.8861-0.8862 0.77444-0.64971 3.6356-15.133 8.97-2.7781 1.7022-3.1943 1.8934-0.02089 4.0243-0.77607 0.03954 0.02249-2.0847v-2.3547l3.5719-2.2796 8.599-5.1193 8.9037-5.3379 0.2377-1.3613 0.17156-1.0154-0.11407-0.11407-0.11407-0.11407-15.038 9.0662-11.112 6.7219-0.13229 6.9884-0.13229 6.9884 2.7781 2.6554v7.946l-2.9104 2.8743v12.195l10.583 6.2323 9.3927 5.534 0.16744 1.3244-0.83606-0.01125z"/><path d="m57.452 95.153 8.1116-4.9361 6.5589-3.9947 3.7791 1.0136 9.5615-5.6711 0.07371-3.6404 0.0062-3.7979 0.84611 0.0043v7.8285l-10.3 6.1619-3.9233-0.92492-14.366 8.6806z"/><path d="m43.394 96.96-4.4979-2.7035-0.88783-3.8706-6.3221-3.795-6.5484-3.8906-6.35-3.789-0.07194-5.1015-0.07194-5.1015 2.922-2.6763v-9.297l-2.6133-2.6625-0.06196-6.35-0.06196-6.35 0.84985-0.02624 0.03527 1.7389v10.478l2.6458 2.8182 0.0052 5.0632 0.0052 5.0632-2.6512 2.3812-0.02958 4.7625-0.02957 4.7625 4.13 2.4945 0.06543-0.06542 0.06543-0.06543 0.05634-3.202 6.68e-4 -3.4406 1.0278-0.0219v7.5313l13.767 8.1466 0.91935 3.9585 3.7026 2.1879 4.1042 2.4345-0.0036-1.3032v-1.0566l-4.4979-2.9933v-6.153l0.80966 0.01178-0.01591 2.9193v2.7841l4.4979 2.9016v4.2302l-0.39406-2e-3z"/><path d="m53.911 99.808-1.1245-0.678v-6.169h0.79375v5.7021l1.743 0.83116 2.6227-1.5732 5.9531-3.5079 8.8254-5.3002 0.19099 0.30527 0.23598 0.37276-6.6595 4.0635-6.1647 3.6666-4.9624 2.9855-0.32926-0.0206z"/><path d="m52.588 102.41-2.4474-1.5012v-6.2015l-3.0547-2.0744 0.47999-0.62149 1.8509 1.2308 1.66 1.1989 0.01941 5.2275-3e-3 0.75066 1.1351 0.7284 0.9551 0.59907 2.1167 1.2076 20.373-12.161 15.875-9.3926 1.9844-1.2729v-12.215l-2.6458-2.3788v-8.33l2.6458-2.5051v-14.819l0.92604 0.18006-0.08702 15.043-2.6911 2.5942v7.3039l2.9104 2.66v12.657l-0.92604 0.8023-11.906 7.02-5.0271 3.0385-21.167 12.637-0.52917 0.0956z"/><path d="m50.67 107.41-4.3656-2.5946-22.49-13.226-12.965-7.6562-0.06758-23.311-0.06758-23.311 32.943-19.7 11.488-7.0607h0.32156l13.326 8.1407 18.785 11.354 12.015 7.0957 0.01169 9.8557 9e-3 9.9909-0.43221-0.1352-2.4682-0.84102-0.06978-8.5092-0.06978-8.5092-17.198-10.325-23.885-14.414h-0.35647l-36.083 21.609-5.1594 3.0284v19.517l3.7042 3.0473-0.0104 0.29134-3.6939 3.1292 0.0213 17.244 4.6089 2.6811 19.579 11.563 16.919 10.053h0.55424l1.0532-0.67638 1.0532-0.67637 18.256-10.834 14.552-8.6089 6.2174-3.7669 3.18e-4 -16.993-3.9706-3.1101 0.13412-0.33754 2.9104-2.481 3.8365 1.339v23.451l-4.8948 2.8745-22.225 13.202-16.93 10.1-0.53235 0.1022z"/><path d="m62.11 111.02-1.9662-1.0169 7.8512-4.7792 7.371-4.4489h0.23054l-0.18401 2.3249-0.18401 2.3248 7.4387 0.90033 5.5732-3.5276 0.0024-9.5631 8.3052-5.0271 2.5404-1.4659-0.0056 3.3633-5.3072 3.2637-2.909 1.8538-1.5416-0.79717h-0.29086v8.7485l-6.1196 3.9901-4.1255-0.48031-4.2773-0.5028 0.0915-1.5228-1.7087 1.2293v2.8255c-0.20295 0.48884-0.62083 0.83128-1.0583 1.0583-0.61253 0.20137-1.1101 0.10613-1.7198-0.012-0.47476-0.2638-0.86856-0.6167-1.2695-0.97608l-4.8006 3.1045-0.27987-0.0318z"/><path d="m44.463 110.7-1.8416-1.17-0.69819 0.57944-1.3072-0.79047 0.11247-0.8646-3.1552-1.8838-4.7625-2.7607-0.21409-1.3216-2.8677 0.61659-8.5035-5.0969-8.616-5.1869-0.02977-1.3195-1.336-0.84881-1.0548-0.72509v-3.4446h0.29l2.8624 1.831 0.15494 4.119 13.849 8.3051 5.4658-1.2394 8.6651 5.1707 8.9575 5.355-2.0172 1.008-1.7248 0.85054-0.3728 6e-5z"/></g><g stroke-width=".26458"><circle cx="38.354" cy="109.61" r="1.2316"/><circle cx="2.8612" cy="44.248" r="1.3878"/><circle cx="103.47" cy="37.675" r="1.4952"/><circle cx="63.301" cy="5.7751" r="1.2964"/></g><path d="m33.609 35.529a1.4554 1.4554 0 0 0-1.4554 1.4554 1.4554 1.4554 0 0 0 1.4554 1.4554 1.4554 1.4554 0 0 0 1.4558-1.4554 1.4554 1.4554 0 0 0-1.4558-1.4554zm0 0.83823a0.61713 0.61713 0 0 1 0.61713 0.61713 0.61713 0.61713 0 0 1-0.61713 0.61713 0.61713 0.61713 0 0 1-0.61713-0.61713 0.61713 0.61713 0 0 1 0.61713-0.61713z" stroke-width=".22732"/><path d="m22.411 44.05a1.4713 1.4713 0 0 0-1.4713 1.4713 1.4713 1.4713 0 0 0 1.4713 1.4713 1.4713 1.4713 0 0 0 1.4717-1.4713 1.4713 1.4713 0 0 0-1.4717-1.4713zm0 0.84739a0.62387 0.62387 0 0 1 0.62387 0.62388 0.62387 0.62387 0 0 1-0.62387 0.62388 0.62387 0.62387 0 0 1-0.62388-0.62388 0.62387 0.62387 0 0 1 0.62388-0.62388z" stroke-width=".2298"/><g stroke-width=".22049"><path d="m24.61 63.076a1.4117 1.4117 0 0 0-1.4117 1.4117 1.4117 1.4117 0 0 0 1.4117 1.4117 1.4117 1.4117 0 0 0 1.4121-1.4117 1.4117 1.4117 0 0 0-1.4121-1.4117zm0 0.81306a0.5986 0.5986 0 0 1 0.5986 0.5986 0.5986 0.5986 0 0 1-0.5986 0.5986 0.5986 0.5986 0 0 1-0.5986-0.5986 0.5986 0.5986 0 0 1 0.5986-0.5986z"/><path d="m24.484 71.678a1.4117 1.4117 0 0 0-1.4117 1.4117 1.4117 1.4117 0 0 0 1.4117 1.4117 1.4117 1.4117 0 0 0 1.4121-1.4117 1.4117 1.4117 0 0 0-1.4121-1.4117zm0 0.81306a0.5986 0.5986 0 0 1 0.5986 0.5986 0.5986 0.5986 0 0 1-0.5986 0.5986 0.5986 0.5986 0 0 1-0.5986-0.5986 0.5986 0.5986 0 0 1 0.5986-0.5986z"/><path d="m43.383 84.234a1.4117 1.4117 0 0 0-1.4117 1.4117 1.4117 1.4117 0 0 0 1.4117 1.4117 1.4117 1.4117 0 0 0 1.4121-1.4117 1.4117 1.4117 0 0 0-1.4121-1.4117zm0 0.81306a0.5986 0.5986 0 0 1 0.5986 0.5986 0.5986 0.5986 0 0 1-0.5986 0.5986 0.5986 0.5986 0 0 1-0.5986-0.5986 0.5986 0.5986 0 0 1 0.5986-0.5986z"/><path d="m53.175 90.601a1.4117 1.4117 0 0 0-1.4117 1.4117 1.4117 1.4117 0 0 0 1.4117 1.4117 1.4117 1.4117 0 0 0 1.4121-1.4117 1.4117 1.4117 0 0 0-1.4121-1.4117zm0 0.81306a0.5986 0.5986 0 0 1 0.5986 0.5986 0.5986 0.5986 0 0 1-0.5986 0.5986 0.5986 0.5986 0 0 1-0.5986-0.5986 0.5986 0.5986 0 0 1 0.5986-0.5986z"/><path d="m56.763 94.576a1.4117 1.4117 0 0 0-1.4117 1.4117 1.4117 1.4117 0 0 0 1.4117 1.4117 1.4117 1.4117 0 0 0 1.4121-1.4117 1.4117 1.4117 0 0 0-1.4121-1.4117zm0 0.81306a0.5986 0.5986 0 0 1 0.5986 0.5986 0.5986 0.5986 0 0 1-0.5986 0.5986 0.5986 0.5986 0 0 1-0.5986-0.5986 0.5986 0.5986 0 0 1 0.5986-0.5986z"/></g><circle cx="46.789" cy="91.989" r=".93449" stroke-width=".28653"/><circle cx="3.1821" cy="90.257" r="1.6105" stroke-width=".49381"/><g stroke-width=".22732"><path d="m75.979 35.041a1.4554 1.4554 0 0 0-1.4554 1.4554 1.4554 1.4554 0 0 0 1.4554 1.4554 1.4554 1.4554 0 0 0 1.4558-1.4554 1.4554 1.4554 0 0 0-1.4558-1.4554zm0 0.83823a0.61713 0.61713 0 0 1 0.61713 0.61713 0.61713 0.61713 0 0 1-0.61713 0.61713 0.61713 0.61713 0 0 1-0.61713-0.61713 0.61713 0.61713 0 0 1 0.61713-0.61713z"/><path d="m88.137 50.965a1.4554 1.4554 0 0 0-1.4554 1.4554 1.4554 1.4554 0 0 0 1.4554 1.4554 1.4554 1.4554 0 0 0 1.4558-1.4554 1.4554 1.4554 0 0 0-1.4558-1.4554zm0 0.83823a0.61713 0.61713 0 0 1 0.61713 0.61713 0.61713 0.61713 0 0 1-0.61713 0.61713 0.61713 0.61713 0 0 1-0.61713-0.61713 0.61713 0.61713 0 0 1 0.61713-0.61713z"/><path d="m85.95 71.656a1.4554 1.4554 0 0 0-1.4554 1.4554 1.4554 1.4554 0 0 0 1.4554 1.4554 1.4554 1.4554 0 0 0 1.4558-1.4554 1.4554 1.4554 0 0 0-1.4558-1.4554zm0 0.83823a0.61713 0.61713 0 0 1 0.61713 0.61713 0.61713 0.61713 0 0 1-0.61713 0.61713 0.61713 0.61713 0 0 1-0.61713-0.61713 0.61713 0.61713 0 0 1 0.61713-0.61713z"/></g><g stroke-width=".28653"><circle cx="88.557" cy="74.166" r=".93449"/><circle cx="106.88" cy="30.743" r=".93449"/><circle cx="53.799" cy="24.35" r=".93449"/></g></g></g></svg>
