<svg xmlns="http://www.w3.org/2000/svg" viewBox="0 11.9399995803833 358.94000244140625 49" data-asc="0.98974609375" width="358.94000244140625" height="49"><defs/><g fill="#000000"><g transform="translate(0, 0)"><path d="M34.99 39.18Q34.99 41.06 34.51 42.57Q34.03 44.07 33.25 45.21Q32.47 46.36 31.42 47.17Q30.37 47.97 29.25 48.49Q28.13 49.00 26.97 49.24Q25.81 49.49 24.78 49.49L0.29 49.49L0.29 43.14L24.78 43.14Q26.61 43.14 27.62 42.07Q28.64 40.99 28.64 39.18Q28.64 38.31 28.37 37.57Q28.10 36.84 27.60 36.30Q27.10 35.77 26.38 35.47Q25.66 35.18 24.78 35.18L10.18 35.18Q8.64 35.18 6.86 34.63Q5.08 34.08 3.55 32.86Q2.03 31.64 1.01 29.66Q0 27.69 0 24.83Q0 21.97 1.01 20.01Q2.03 18.04 3.55 16.81Q5.08 15.58 6.86 15.03Q8.64 14.48 10.18 14.48L31.79 14.48L31.79 20.83L10.18 20.83Q8.37 20.83 7.36 21.92Q6.35 23.02 6.35 24.83Q6.35 26.66 7.36 27.72Q8.37 28.78 10.18 28.78L24.78 28.78L24.83 28.78Q25.85 28.81 27.00 29.06Q28.15 29.32 29.28 29.86Q30.42 30.40 31.45 31.21Q32.47 32.03 33.26 33.18Q34.06 34.33 34.52 35.82Q34.99 37.30 34.99 39.18ZM70.56 49.49L61.40 49.49L48.61 37.13Q47.53 36.16 47.61 34.69Q47.66 34.01 47.96 33.41Q48.27 32.81 48.80 32.40L60.40 23.05L70.56 23.05L55.62 35.08L70.56 49.49M46.00 49.49L39.65 49.49L39.65 11.94L46.00 11.94L46.00 49.49ZM100.51 40.75Q100.51 42.07 100.05 43.59Q99.58 45.12 98.55 46.42Q97.51 47.73 95.84 48.61Q94.17 49.49 91.77 49.49L80.32 49.49Q79.00 49.49 77.48 49.02Q75.95 48.56 74.65 47.52Q73.34 46.48 72.46 44.81Q71.58 43.14 71.58 40.75Q71.58 39.43 72.05 37.89Q72.51 36.35 73.55 35.05Q74.58 33.74 76.26 32.86Q77.93 31.98 80.32 31.98L91.77 31.98L91.77 38.04L80.32 38.04Q79.03 38.04 78.32 38.83Q77.61 39.62 77.61 40.80Q77.61 42.04 78.43 42.74Q79.25 43.43 80.37 43.43L91.77 43.43Q93.07 43.43 93.77 42.65Q94.48 41.87 94.48 40.70L94.48 31.84Q94.48 30.59 93.71 29.86Q92.94 29.13 91.77 29.13L77.83 29.13L77.83 23.10L91.77 23.10Q93.09 23.10 94.62 23.56Q96.14 24.02 97.45 25.06Q98.75 26.10 99.63 27.77Q100.51 29.44 100.51 31.84L100.51 40.75ZM135.18 49.49L128.83 49.49L128.83 34.84Q128.83 33.59 128.41 32.60Q127.98 31.62 127.25 30.91Q126.51 30.20 125.52 29.82Q124.54 29.44 123.39 29.44L112.28 29.44L112.28 49.49L105.93 49.49L105.93 26.25Q105.93 25.59 106.18 25.01Q106.42 24.44 106.86 24.01Q107.30 23.58 107.89 23.34Q108.47 23.10 109.13 23.10L123.44 23.10Q124.63 23.10 125.96 23.36Q127.29 23.63 128.60 24.23Q129.91 24.83 131.09 25.74Q132.28 26.66 133.19 27.97Q134.11 29.27 134.64 30.98Q135.18 32.69 135.18 34.84L135.18 49.49ZM171.75 49.49L162.60 49.49L149.80 37.13Q148.73 36.16 148.80 34.69Q148.85 34.01 149.16 33.41Q149.46 32.81 150 32.40L161.60 23.05L171.75 23.05L156.81 35.08L171.75 49.49M147.19 49.49L140.84 49.49L140.84 11.94L147.19 11.94L147.19 49.49ZM204.42 52.03Q204.42 53.66 204.00 54.97Q203.59 56.27 202.91 57.26Q202.22 58.25 201.32 58.95Q200.42 59.64 199.43 60.08Q198.44 60.52 197.44 60.73Q196.44 60.94 195.53 60.94L184.08 60.94L184.08 54.59L195.53 54.59Q196.80 54.59 197.44 53.93Q198.07 53.27 198.07 52.03L198.07 23.10L204.42 23.10L204.42 52.03M195.53 49.49L184.08 49.49Q182.71 49.49 181.16 49.02Q179.61 48.56 178.27 47.50Q176.93 46.44 176.05 44.74Q175.17 43.04 175.17 40.58L175.17 23.10L181.52 23.10L181.52 40.58Q181.52 41.82 182.18 42.48Q182.84 43.14 184.13 43.14L195.53 43.14L195.53 49.49ZM217.58 28.78L239.87 28.78L239.87 14.48L246.22 14.48L246.22 49.49L239.87 49.49L239.87 35.18L217.58 35.18L217.58 49.49L211.23 49.49L211.23 14.48L217.58 14.48L217.58 28.78ZM281.47 40.58Q281.47 42.21 281.05 43.52Q280.64 44.82 279.96 45.81Q279.27 46.80 278.37 47.50Q277.47 48.19 276.48 48.63Q275.49 49.07 274.48 49.28Q273.46 49.49 272.56 49.49L261.11 49.49Q259.79 49.49 258.23 49.02Q256.67 48.56 255.33 47.50Q254.00 46.44 253.11 44.74Q252.22 43.04 252.22 40.58L252.22 31.98Q252.22 29.54 253.11 27.84Q254.00 26.15 255.33 25.09Q256.67 24.02 258.23 23.56Q259.79 23.10 261.11 23.10L272.56 23.10Q275 23.10 276.71 23.97Q278.42 24.85 279.47 26.18Q280.52 27.51 280.99 29.08Q281.47 30.64 281.47 31.98L281.47 40.58M275.12 32.03Q275.12 30.71 274.46 30.08Q273.80 29.44 272.56 29.44L261.16 29.44Q259.89 29.44 259.23 30.09Q258.57 30.74 258.57 31.98L258.57 40.58Q258.57 41.82 259.23 42.48Q259.89 43.14 261.16 43.14L272.56 43.14Q273.85 43.14 274.49 42.48Q275.12 41.82 275.12 40.58L275.12 32.03ZM310.42 49.49L304.08 49.49L304.08 31.98Q304.08 30.74 303.42 30.09Q302.76 29.44 301.46 29.44L293.21 29.44L293.21 49.49L286.87 49.49L286.87 26.25Q286.87 25.59 287.11 25.01Q287.35 24.44 287.79 24.01Q288.23 23.58 288.82 23.34Q289.40 23.10 290.06 23.10L301.51 23.10Q302.83 23.10 304.35 23.56Q305.86 24.02 307.23 25.05L307.23 23.10L315.82 23.10Q316.72 23.10 317.72 23.30Q318.73 23.51 319.71 23.95Q320.70 24.39 321.61 25.09Q322.51 25.78 323.19 26.77Q323.88 27.76 324.29 29.05Q324.71 30.35 324.71 31.98L324.71 49.49L318.36 49.49L318.36 31.98Q318.36 30.74 317.74 30.09Q317.11 29.44 315.82 29.44L310.11 29.44Q310.42 30.62 310.42 31.98L310.42 49.49ZM358.94 31.84Q358.94 33.15 358.47 34.68Q358.01 36.21 356.97 37.51Q355.93 38.82 354.26 39.70Q352.59 40.58 350.20 40.58L338.75 40.58L338.75 34.55L350.20 34.55Q351.49 34.55 352.20 33.75Q352.91 32.96 352.91 31.79Q352.91 30.54 352.11 29.83Q351.32 29.13 350.20 29.13L338.75 29.13Q337.45 29.13 336.74 29.92Q336.04 30.71 336.04 31.88L336.04 40.75Q336.04 42.02 336.83 42.72Q337.62 43.43 338.79 43.43L350.20 43.43L350.20 49.49L338.75 49.49Q337.43 49.49 335.90 49.02Q334.38 48.56 333.07 47.52Q331.76 46.48 330.88 44.81Q330.00 43.14 330.00 40.75L330.00 31.84Q330.00 30.52 330.47 28.99Q330.93 27.47 331.97 26.16Q333.01 24.85 334.68 23.97Q336.35 23.10 338.75 23.10L350.20 23.10Q351.51 23.10 353.04 23.56Q354.57 24.02 355.87 25.06Q357.18 26.10 358.06 27.77Q358.94 29.44 358.94 31.84Z"/></g></g></svg>